# xmcd
#
# Track frame offsets: 
#        150
#        23588
#        38383
#        54015
#        74094
#        88595
#        105617
#        122233
#        140293
#        156709
#        173462
#
# Disc length: 2556 seconds
#
# Revision: 6
# Processed by: cddbd v1.5.2PL0 Copyright (c) Steve Scherf et al.
# Submitted via: ExactAudioCopy v1.1
#
DISCID=8709fa0b
DTITLE=Bosse - Engtanz 
DYEAR=2016
DGENRE=Pop
TTITLE0=Auﬂerhalb der Zeit
TTITLE1=Dein Hurra
TTITLE2=Steine
TTITLE3=Nachttischlampe
TTITLE4=Krumme Symphonie (feat. Casper)
TTITLE5=Mordor
TTITLE6=Immer so lieben
TTITLE7=Wir nehmen uns mit
TTITLE8=Blicke
TTITLE9=Insel
TTITLE10=Ahoi ade
EXTD=
EXTT0=
EXTT1=
EXTT2=
EXTT3=
EXTT4=
EXTT5=
EXTT6=
EXTT7=
EXTT8=
EXTT9=
EXTT10=
PLAYORDER=
